<svg xmlns="http://www.w3.org/2000/svg" xmlns:xlink="http://www.w3.org/1999/xlink" width="139.505" height="68.496" viewBox="0 0 139.505 68.496"><defs><style>.a,.f{fill:#fff;}.a,.b{font-size:15px;}.a{font-family:SegoeUI-Semibold, Segoe UI;font-weight:600;}.b{fill:#b7d5df;font-family:SegoeUI, Segoe UI;}.c{fill:url(#a);}.d{fill:url(#b);}.e{fill:url(#c);}</style><linearGradient id="a" x1="0.5" x2="0.5" y2="1" gradientUnits="objectBoundingBox"><stop offset="0" stop-color="#fff"/><stop offset="1" stop-color="#fff"/></linearGradient><linearGradient id="b" x1="0.5" x2="0.5" y2="1" gradientUnits="objectBoundingBox"><stop offset="0" stop-color="#fff"/><stop offset="1" stop-color="#9cc6d3"/></linearGradient><linearGradient id="c" x1="0.5" x2="0.5" y2="1" gradientUnits="objectBoundingBox"><stop offset="0" stop-color="#5fa3b9"/><stop offset="1" stop-color="#fff"/></linearGradient></defs><g transform="translate(-389.65 -27.198)"><g transform="translate(38 -6)"><g transform="translate(417.457 57.701)"><g transform="translate(0 0)"><g transform="translate(0)"><text class="a" transform="translate(0 16)"><tspan x="0" y="0">COMPANY</tspan></text><text class="b" transform="translate(0.106 33.456)"><tspan x="0" y="0">LOGO</tspan></text></g></g></g><g transform="translate(351.65 33.198)"><path class="c" d="M2.971,41.663c2.421-7.731,6.649-12.656,13-18.24.807-.711,1.644-1.415,2.5-2.109l.015-.013q2.265-1.559,4.689-3.041a.439.439,0,0,1,.05-.028,130.416,130.416,0,0,1,14.452-6.946s0,0,.01,0l.02-.008s0,0,0,0C54.037,5.373,73.144,1.509,93.755.361a.468.468,0,0,1,.06,0Q97.521.148,101.3.063,103.977,0,106.7,0c1.832,0,3.659.02,5.471.066A206.687,206.687,0,0,0,72.807,6.58l-.025.008C56.572,10.5,42.224,16.241,30.648,23.314a.445.445,0,0,0-.05.028C15.918,31.6,5.189,41.879.005,53.324,0,53.121,0,52.917,0,52.714" transform="translate(28.173 1.9) rotate(7)"/><circle class="d" cx="6.5" cy="6.5" r="6.5" transform="translate(40.35 4.802)"/><path class="e" d="M624.566,255.3c-.141-.037-.282-.073-.423-.108,7.59,4.624,14,11.767,18.742,20.488a.272.272,0,0,1,.016.03,73.371,73.371,0,0,1,8.773,23.77c0,.005,0,.008,0,.014a81.129,81.129,0,0,1,1.875,20.556c.154-.884.29-1.779.413-2.681s.228-1.783.319-2.671q.2-1.873.3-3.736a.173.173,0,0,0,0-.03,80.415,80.415,0,0,0-3.807-29.567s0,0,0,0,0-.008,0-.011,0,0,0-.005a69.982,69.982,0,0,0-3.847-8.372.263.263,0,0,0-.016-.03q-.865-1.464-1.794-2.859l-.008-.009c-.424-.547-.855-1.087-1.295-1.613a46.255,46.255,0,0,0-11.625-9.6" transform="translate(-609.674 -254.468)"/><path class="c" d="M1.215,11.28A53.123,53.123,0,0,0,6.53,28.925q.495,1.032,1.022,2.04l.006.012q.926,1.508,1.917,2.942a.233.233,0,0,0,.02.027,57.349,57.349,0,0,0,5.91,6.719s0,0,0,0l.008.007s0,0,0,0A44.153,44.153,0,0,0,38.339,51.234a.083.083,0,0,0,.024,0q1.515.2,3.059.285,1.1.063,2.209.061c.749,0,1.5-.02,2.237-.064a42.865,42.865,0,0,1-16.1-6.3l-.01-.007a53.506,53.506,0,0,1-17.23-16.18.236.236,0,0,1-.02-.027A70.289,70.289,0,0,1,0,0C0,.2,0,.393,0,.59" transform="translate(44.506 61.147) rotate(-166)"/></g></g><g transform="translate(390.16 40.737)"><rect class="f" width="6.602" height="20.314" transform="translate(20.314 6.816) rotate(90)"/><path class="f" d="M0,0H6.845V20.534H0Z" transform="translate(6.601)"/></g></g></svg>