<svg xmlns="http://www.w3.org/2000/svg" xmlns:xlink="http://www.w3.org/1999/xlink" width="168.931" height="47.489" viewBox="0 0 168.931 47.489"><defs><style>.a,.b,.d{fill:#7abbc9;}.a,.b{font-size:16px;}.a{font-family:SegoeUI-Semibold, Segoe UI;font-weight:600;}.b{font-family:SegoeUI, Segoe UI;}.c{fill:url(#a);}</style><linearGradient id="a" x1="0.5" x2="0.5" y2="1" gradientUnits="objectBoundingBox"><stop offset="0" stop-color="#5fa3b9"/><stop offset="1" stop-color="#235479"/></linearGradient></defs><g transform="translate(-393.633 -2289.869)"><g transform="translate(88 2313.791)"><g transform="translate(354.497 -0.128)"><g transform="translate(-5 -2)"><g transform="translate(0 0)"><text class="a" transform="translate(1 18)"><tspan x="0" y="0">COMPANY</tspan></text><text class="b" transform="translate(82.067 18.062)"><tspan x="0" y="0">LOGO</tspan></text></g></g></g><g transform="translate(305.633 -23.921)"><path class="c" d="M2.06,28.885c1.678-5.36,4.61-8.775,9.011-12.646.559-.493,1.14-.981,1.733-1.462l.01-.009q1.571-1.081,3.251-2.108a.305.305,0,0,1,.034-.019,90.421,90.421,0,0,1,10.02-4.815l.007,0,.014-.005s0,0,0,0A137.85,137.85,0,0,1,65,.25a.325.325,0,0,1,.041,0Q67.611.1,70.229.044,72.087,0,73.974,0c1.27,0,2.537.014,3.793.046A143.3,143.3,0,0,0,50.477,4.562l-.017.005a102.632,102.632,0,0,0-29.212,11.6.31.31,0,0,0-.035.019C11.036,21.905,3.6,29.035,0,36.969c0-.141,0-.282,0-.423" transform="translate(19.532 1.317) rotate(7)"/><ellipse class="c" cx="4" cy="4.5" rx="4" ry="4.5" transform="translate(28.367 3.13)"/><path class="c" d="M624.437,255.266c-.1-.025-.2-.051-.293-.075a37.2,37.2,0,0,1,12.994,14.2.2.2,0,0,1,.011.021,50.872,50.872,0,0,1,6.082,16.48s0,.006,0,.009a56.246,56.246,0,0,1,1.3,14.252c.106-.613.2-1.234.287-1.859s.158-1.236.221-1.852q.135-1.3.206-2.59a.106.106,0,0,0,0-.021,55.749,55.749,0,0,0-2.639-20.5s0,0,0,0l0-.008s0,0,0,0a48.5,48.5,0,0,0-2.667-5.8.2.2,0,0,0-.011-.021q-.6-1.015-1.244-1.982l-.005-.007c-.294-.379-.593-.753-.9-1.118a32.071,32.071,0,0,0-8.059-6.654" transform="translate(-614.112 -254.689)"/><path class="c" d="M.842,7.82A36.83,36.83,0,0,0,4.527,20.053q.343.716.709,1.414l0,.009q.642,1.045,1.329,2.039a.162.162,0,0,0,.014.019,39.76,39.76,0,0,0,4.1,4.658l0,0,.006.005s0,0,0,0A30.611,30.611,0,0,0,26.58,35.52a.057.057,0,0,0,.017,0q1.051.141,2.121.2.76.043,1.531.043c.519,0,1.037-.014,1.551-.044A29.718,29.718,0,0,1,20.641,31.35l-.007-.005A37.1,37.1,0,0,1,8.689,20.127a.164.164,0,0,1-.014-.019A48.732,48.732,0,0,1,0,0C0,.136,0,.273,0,.409" transform="translate(30.856 42.393) rotate(-166)"/></g></g><g transform="translate(393.677 2301.365)"><rect class="d" width="4.577" height="14.084" transform="translate(14.084 4.726) rotate(90)"/><path class="d" d="M0,0H4.745V14.236H0Z" transform="translate(4.576 0)"/></g></g></svg>